<svg width="16" height="16" viewBox="0 0 16 16" fill="none" xmlns="http://www.w3.org/2000/svg">
<path d="M14.7005 14.5625C15.0854 14.5625 15.3259 14.1458 15.1335 13.8125L8.40376 2.15625C8.21131 1.82292 7.73019 1.82292 7.53774 2.15625L0.808013 13.8125C0.615563 14.1458 0.856125 14.5625 1.24103 14.5625H3.63101C3.80964 14.5625 3.97471 14.4672 4.06402 14.3125L7.53774 8.29582C7.73019 7.96249 8.21131 7.96249 8.40376 8.29582L11.8775 14.3125C11.9668 14.4672 12.1319 14.5625 12.3105 14.5625H14.7005Z" fill="#0487FF"/>
<path fill-rule="evenodd" clip-rule="evenodd" d="M9.50321 14.5625C9.88911 14.5625 10.1295 14.1439 9.9351 13.8106L8.34979 11.0929C8.15685 10.7622 7.67895 10.7622 7.48601 11.0929L5.9007 13.8106C5.70626 14.1439 5.9467 14.5625 6.33259 14.5625H9.50321Z" fill="#161C33"/>
</svg>
